<mxfile host="app.diagrams.net" agent="Mozilla/5.0 (Macintosh; Intel Mac OS X 10_15_7) AppleWebKit/537.36 (KHTML, like Gecko) Chrome/130.0.0.0 Safari/537.36" version="25.0.0">
  <diagram id="f106602c-feb2-e66a-4537-3a34d633f6aa" name="Page-1">
    <mxGraphModel dx="1194" dy="731" grid="1" gridSize="10" guides="1" tooltips="1" connect="1" arrows="1" fold="1" page="1" pageScale="1" pageWidth="1169" pageHeight="827" background="none" math="0" shadow="0">
      <root>
        <mxCell id="0" />
        <mxCell id="1" parent="0" />
        <mxCell id="H5XLg-262uGlo7exfHj2-715" value="&lt;b&gt;Google &lt;/b&gt;Cloud Platform" style="fillColor=#E6E6E6;strokeColor=none;shadow=0;gradientColor=none;fontSize=14;align=left;spacing=10;fontColor=#717171;9E9E9E;verticalAlign=top;spacingTop=-4;fontStyle=0;spacingLeft=40;html=1;container=0;" parent="1" vertex="1">
          <mxGeometry x="210" y="60" width="910" height="500" as="geometry" />
        </mxCell>
        <mxCell id="CVS4CZeJGM4_yebflVYQ-15" value="" style="rounded=1;absoluteArcSize=1;arcSize=2;html=1;strokeColor=#000000;gradientColor=none;shadow=0;dashed=1;fontSize=12;fontColor=#9E9E9E;align=left;verticalAlign=top;spacing=10;spacingTop=-4;fillColor=none;strokeWidth=2;movable=1;resizable=1;rotatable=1;deletable=1;editable=1;locked=0;connectable=1;container=0;" parent="1" vertex="1">
          <mxGeometry x="240" y="98.47999999999999" width="840" height="422.478" as="geometry" />
        </mxCell>
        <mxCell id="H5XLg-262uGlo7exfHj2-720" value="&lt;font color=&quot;#000000&quot;&gt;PFP-LZ Data Plane&lt;/font&gt;" style="rounded=1;absoluteArcSize=1;arcSize=2;html=1;strokeColor=#4284F3;gradientColor=none;shadow=0;dashed=1;fontSize=12;fontColor=#9E9E9E;align=left;verticalAlign=top;spacing=10;spacingTop=-4;fillColor=#CCFFFF;dashPattern=1 2;strokeWidth=2;opacity=50;" parent="1" vertex="1">
          <mxGeometry x="256" y="328" width="804.98" height="163" as="geometry" />
        </mxCell>
        <mxCell id="7dp7OHDMAVVQQI8xo28f-43" value="PFP-LZ Control Plane" style="rounded=1;absoluteArcSize=1;arcSize=2;html=1;strokeColor=#56517e;shadow=0;dashed=1;fontSize=12;align=left;verticalAlign=top;spacing=10;spacingTop=-4;fillColor=#d0cee2;dashPattern=1 2;strokeWidth=2;opacity=50;" parent="1" vertex="1">
          <mxGeometry x="269.01" y="178" width="793.97" height="130" as="geometry" />
        </mxCell>
        <mxCell id="7dp7OHDMAVVQQI8xo28f-106" value="" style="rounded=0;whiteSpace=wrap;html=1;opacity=25;strokeColor=#9E0000;" parent="1" vertex="1">
          <mxGeometry x="520" y="199" width="426" height="99" as="geometry" />
        </mxCell>
        <mxCell id="7dp7OHDMAVVQQI8xo28f-105" style="edgeStyle=orthogonalEdgeStyle;rounded=0;orthogonalLoop=1;jettySize=auto;html=1;exitX=0.5;exitY=1;exitDx=0;exitDy=0;" parent="1" source="7dp7OHDMAVVQQI8xo28f-43" edge="1">
          <mxGeometry relative="1" as="geometry">
            <mxPoint x="666" y="328" as="targetPoint" />
          </mxGeometry>
        </mxCell>
        <mxCell id="H5XLg-262uGlo7exfHj2-716" value="" style="shape=mxgraph.gcp2.google_cloud_platform;fillColor=#F6F6F6;strokeColor=none;shadow=0;gradientColor=none;" parent="1" vertex="1">
          <mxGeometry x="230" y="70" width="23" height="20" as="geometry">
            <mxPoint x="20" y="10" as="offset" />
          </mxGeometry>
        </mxCell>
        <mxCell id="H5XLg-262uGlo7exfHj2-721" value="Low Level Design Architecture: Data Ingestion Using PubSub &amp;amp; Cloud Function &amp;gt; Places For People" style="fillColor=#4DA1F5;strokeColor=none;shadow=1;gradientColor=none;fontSize=14;align=left;spacingLeft=50;fontColor=#ffffff;html=1;" parent="1" vertex="1">
          <mxGeometry x="269.02" y="120.65822784810126" width="796.98" height="49.52506329113923" as="geometry" />
        </mxCell>
        <mxCell id="7dp7OHDMAVVQQI8xo28f-46" value="Cloud&lt;br&gt;IAM&amp;nbsp;&lt;br&gt;Access Control" style="sketch=0;html=1;verticalAlign=top;labelPosition=center;verticalLabelPosition=bottom;align=center;spacingTop=-6;fontSize=11;fontStyle=1;fontColor=#999999;shape=image;aspect=fixed;imageAspect=0;image=data:image/svg+xml,PHN2ZyB4bWxucz0iaHR0cDovL3d3dy53My5vcmcvMjAwMC9zdmciIHhtbG5zOnY9Imh0dHBzOi8vdmVjdGEuaW8vbmFubyIgd2lkdGg9IjE2LjQyMDAwMDA3NjI5Mzk0NSIgaGVpZ2h0PSIyMC4wNDk5OTkyMzcwNjA1NDciIGZpbGwtcnVsZT0iZXZlbm9kZCIgdmlld0JveD0iMCAwIDE2LjQyMDAwMDA3NjI5Mzk0NSAyMC4wNDk5OTkyMzcwNjA1NDciPiYjeGE7CTxzdHlsZSB0eXBlPSJ0ZXh0L2NzcyI+JiN4YTsJLnN0MHtmaWxsOiM0Mjg1ZjQ7fSYjeGE7CS5zdDF7ZmlsbDojNjY5ZGY2O30mI3hhOwk8L3N0eWxlPiYjeGE7CTxwYXRoIGNsYXNzPSJzdDEiIGQ9Ik04LjIxIDBMMCAzLjQydjUuNjNjMCA1LjA2IDMuNSA5LjggOC4yMSAxMSA0LjcxLTEuMTUgOC4yMS01Ljg5IDguMjEtMTAuOTVWMy40MnptMCAzLjc5YTIuNjMgMi42MyAwIDAgMSAxLjAwNSA1LjA2QTIuNjMgMi42MyAwIDAgMSA2LjM1IDQuNTZhMi42MyAyLjYzIDAgMCAxIDEuODYtLjc3em00LjExIDExLjE1YTguNjQgOC42NCAwIDAgMS00LjExIDIuOTMgOC42NCA4LjY0IDAgMCAxLTQuMTEtMi45M3YtMi4yNWMwLTEuNjcgMi43NC0yLjUyIDQuMTEtMi41MnM0LjExLjg1IDQuMTEgMi41MnoiLz4mI3hhOwk8cGF0aCBjbGFzcz0ic3QwIiBkPSJNOC4yMSAwdjMuNzlhMi42MyAyLjYzIDAgMSAxIDAgNS4yNnYxLjEyYzEuMzcgMCA0LjExLjg1IDQuMTEgMi41MnYyLjI1YTguNjQgOC42NCAwIDAgMS00LjExIDIuOTNWMjBjNC43MS0xLjE1IDguMjEtNS44OSA4LjIxLTEwLjk1VjMuNDJ6Ii8+JiN4YTs8L3N2Zz4=;" parent="1" vertex="1">
          <mxGeometry x="648.99" y="217" width="34" height="42" as="geometry" />
        </mxCell>
        <mxCell id="7dp7OHDMAVVQQI8xo28f-45" value="Data Loss&#xa;Prevention API" style="sketch=0;html=1;verticalAlign=top;labelPosition=center;verticalLabelPosition=bottom;align=center;spacingTop=-6;fontSize=11;fontStyle=1;fontColor=#999999;shape=image;aspect=fixed;imageAspect=0;image=data:image/svg+xml,PHN2ZyB4bWxucz0iaHR0cDovL3d3dy53My5vcmcvMjAwMC9zdmciIHhtbG5zOnY9Imh0dHBzOi8vdmVjdGEuaW8vbmFubyIgd2lkdGg9IjIwLjAwMTcxNjYxMzc2OTUzIiBoZWlnaHQ9IjE0Ljc5ODEzMTk0Mjc0OTAyMyIgdmlld0JveD0iLTIuOTgwMjMyMjM4NzY5NTMxMmUtOCAtMC4wMDAxMzEyMzc1Mzg4ODA2Njg1OCAyMC4wMDE3MTY2MTM3Njk1MyAxNC43OTgxMzE5NDI3NDkwMjMiPiYjeGE7CTxzdHlsZSB0eXBlPSJ0ZXh0L2NzcyI+JiN4YTsJLnN0MHtmaWxsOiM0Mjg1ZjQ7fSYjeGE7CS5zdDF7ZmlsbDojNjY5ZGY2O30mI3hhOwkuc3Qye2ZpbGw6I2FlY2JmYTt9JiN4YTsJPC9zdHlsZT4mI3hhOwk8cGF0aCBjbGFzcz0ic3QwIiBkPSJNMTIuODYuODM4YTUuNDggNS40OCAwIDAgMC03LjA2IDEuMDYgNS4zMSA1LjMxIDAgMCAwLTEuMzQgMy42IDUuNDkgNS40OSAwIDAgMCAyLjQxIDQuNTNsLS4xNy4yOC0uNTYuMTYtMi4wNiAzLjQ4IDEuNDguODUgMi4wNS0zLjQ4LS4xNi0uNjEuMTQtLjI2YTUuNDkgNS40OSAwIDAgMCA1LjI3LTkuNjF6bS0xLjkyIDguM2EzLjc5IDMuNzkgMCAxIDEgMi42Ni00LjY1aDBhMy44IDMuOCAwIDAgMS0yLjY2IDQuNjV6Ii8+JiN4YTsJPHBhdGggY2xhc3M9InN0MSIgZD0iTS4wNSA0LjE3OGwuMTMtMS4wN2gxLjE4di4zNUguNTJ2LjQ1YS42OC42OCAwIDAgMSAuNzkuMTEuNzguNzggMCAwIDEgLjE3LjUzLjc3Ljc3IDAgMCAxLS4wOS4zNi41My41MyAwIDAgMS0uMjQuMjUuNjUuNjUgMCAwIDEtLjM4LjA5LjczLjczIDAgMCAxLS4zNi0uMDguNjYuNjYgMCAwIDEtLjI2LS4yMS42My42MyAwIDAgMS0uMTUtLjMyaC40MmEuMjcuMjcgMCAwIDAgLjA5LjIuMjUuMjUgMCAwIDAgLjIuMDcuMjMuMjMgMCAwIDAgLjIyLS4xLjQzLjQzIDAgMCAwIC4wNy0uMjkuMzcuMzcgMCAwIDAtLjA5LS4yNy4zMy4zMyAwIDAgMC0uMjUtLjEuNDEuNDEgMCAwIDAtLjI0LjA4aDB6Ii8+JiN4YTsJPHBhdGggY2xhc3M9InN0MiIgZD0iTTMuNDUgNS4yMThIM3YtMS42MWwtLjUxLjE1di0uMzZsLjg4LS4zMWgwek0xIDguMDU4SC41OXYtMS42MWwtLjUuMTV2LS4zNGwuOTEtLjMxaDB6Ii8+JiN4YTsJPHBhdGggY2xhc3M9InN0MSIgZD0iTTMuODYgNy4xODhhMS4xMyAxLjEzIDAgMCAxLS4xOC42Ny43NC43NCAwIDAgMS0xIDBoMGExIDEgMCAwIDEtLjE5LS42NXYtLjM5YTEuMDYgMS4wNiAwIDAgMSAuMTgtLjY3LjczLjczIDAgMCAxIDEgMGgwYTEuMDggMS4wOCAwIDAgMSAuMTkuNjV6bS0uNDItLjQzYS44My44MyAwIDAgMC0uMDctLjM2LjI1LjI1IDAgMCAwLS4yMy0uMTIuMjQuMjQgMCAwIDAtLjIyLjExLjc1Ljc1IDAgMCAwLS4wNy4zNnYuNTFhLjg1Ljg1IDAgMCAwIC4wNy4zOS4yMy4yMyAwIDAgMCAuMjMuMTIuMjMuMjMgMCAwIDAgLjIyLS4xMi43Ny43NyAwIDAgMCAuMDctLjM3eiIvPiYjeGE7CTxwYXRoIGNsYXNzPSJzdDIiIGQ9Ik0xNy4xMyA1LjEzOGgtLjQxdi0xLjYybC0uNTEuMTZ2LS4zNGwuODgtLjMyaDB6Ii8+JiN4YTsJPHBhdGggY2xhc3M9InN0MSIgZD0iTTE4LjYyIDQuMDk4bC4xMy0xLjA3aDEuMTh2LjM3aC0uODRsLS4wOS40M2EuNjUuNjUgMCAwIDEgLjMxLS4wOC42My42MyAwIDAgMSAuNDguMTkuNzQuNzQgMCAwIDEgLjE3LjUyLjgxLjgxIDAgMCAxLS4wOS4zNy42LjYgMCAwIDEtLjI1LjI1Ljc5Ljc5IDAgMCAxLS4zOC4wOS44NS44NSAwIDAgMS0uMzUtLjA4LjYyLjYyIDAgMCAxLS4yNi0uMjIuNTguNTggMCAwIDEtLjEtLjMySDE5YS4zNS4zNSAwIDAgMCAuMS4yMS4yOS4yOSAwIDAgMCAuMi4wNy4yNi4yNiAwIDAgMCAuMjItLjEuNDQuNDQgMCAwIDAgLjA2LS4zMy40MS40MSAwIDAgMC0uMDktLjI4LjM0LjM0IDAgMCAwLS4yNS0uMDkuMzQuMzQgMCAwIDAtLjI0LjA3aDB6bS0xLjA4IDMuMDlhMS4xMyAxLjEzIDAgMCAxLS4xOC42Ny43NC43NCAwIDAgMS0xIDBoMGExIDEgMCAwIDEtLjE5LS42NXYtLjM5YTEuMDYgMS4wNiAwIDAgMSAuMTgtLjY3LjczLjczIDAgMCAxIDEgMGgwYTEuMDggMS4wOCAwIDAgMSAuMTkuNjV6bS0uNDItLjQzYS44My44MyAwIDAgMC0uMDctLjM4LjI1LjI1IDAgMCAwLS4yMy0uMTIuMjQuMjQgMCAwIDAtLjIyLjExLjc1Ljc1IDAgMCAwLS4wNy4zNnYuNTFhLjg1Ljg1IDAgMCAwIC4wNy4zOS4yMy4yMyAwIDAgMCAuMjMuMTIuMjMuMjMgMCAwIDAgLjIyLS4xMi45LjkgMCAwIDAgLjA3LS4zN3oiLz4mI3hhOwk8cGF0aCBjbGFzcz0ic3QyIiBkPSJNMTguNjIgNy4wMThsLjEzLTEuMDdoMS4xOHYuMzVoLS44NGwtLjA1LjQ1YS42NS42NSAwIDAgMSAuMzEtLjA4LjYzLjYzIDAgMCAxIC40OC4xOS43OC43OCAwIDAgMSAuMTcuNTQuNzcuNzcgMCAwIDEtLjA5LjM2LjUxLjUxIDAgMCAxLS4yNS4yNS42OS42OSAwIDAgMS0uMzguMDkuNzIuNzIgMCAwIDEtLjM1LS4wOC41OS41OSAwIDAgMS0uMjYtLjIxLjYzLjYzIDAgMCAxLS4xLS4zMkgxOWEuMzIuMzIgMCAwIDAgLjEuMi4yNS4yNSAwIDAgMCAuMi4wNy4yMy4yMyAwIDAgMCAuMjItLjEuNDMuNDMgMCAwIDAgLjA4LS4yOS4zNy4zNyAwIDAgMC0uMDktLjI3LjMxLjMxIDAgMCAwLS4yNS0uMS4zNS4zNSAwIDAgMC0uMjQuMDhoMHoiLz4mI3hhOwk8cGF0aCBjbGFzcz0ic3QxIiBkPSJNNy43MyA3LjUwOHYtLjk0YS44Ni44NiAwIDAgMSAuMzUtLjYyIDIuNDMgMi40MyAwIDAgMSAuODMtLjQzIDIuODcgMi44NyAwIDAgMSAyLjQyLjI4IDEuMDUgMS4wNSAwIDAgMSAuMjcuMi45LjkgMCAwIDEgLjMuNzV2Ljc2em0yLjA4LTIuNjFhMS4wOCAxLjA4IDAgMSAxIDEuMDgtMS4wN2gwYTEuMDkgMS4wOSAwIDAgMS0xLjA4IDEuMDd6Ii8+JiN4YTs8L3N2Zz4=;" parent="1" vertex="1">
          <mxGeometry x="550" y="227" width="42" height="32" as="geometry" />
        </mxCell>
        <mxCell id="7dp7OHDMAVVQQI8xo28f-82" value="Cloud&amp;nbsp;&lt;div&gt;Logging &amp;amp;&amp;nbsp;&lt;br&gt;Monitoring&lt;/div&gt;" style="sketch=0;html=1;verticalAlign=top;labelPosition=center;verticalLabelPosition=bottom;align=center;spacingTop=-6;fontSize=11;fontStyle=1;fontColor=#999999;shape=image;aspect=fixed;imageAspect=0;image=data:image/svg+xml,PHN2ZyB4bWxucz0iaHR0cDovL3d3dy53My5vcmcvMjAwMC9zdmciIHhtbG5zOnY9Imh0dHBzOi8vdmVjdGEuaW8vbmFubyIgd2lkdGg9IjIwIiBoZWlnaHQ9IjEzLjUyOTk5OTczMjk3MTE5MSIgdmlld0JveD0iLTIuOTMyMDk3ODk3ODEyMDE0ZS05IC01LjI1ODAxNTA0MTgzNzk1NmUtMTUgMjAgMTMuNTI5OTk5NzMyOTcxMTkxIj4mI3hhOwk8c3R5bGUgdHlwZT0idGV4dC9jc3MiPiYjeGE7CS5zdDB7ZmlsbDojNDI4NWY0O30mI3hhOwkuc3Qxe2ZpbGw6IzY2OWRmNjt9JiN4YTsJPC9zdHlsZT4mI3hhOwk8cGF0aCBjbGFzcz0ic3QxIiBkPSJNOC44MyAxMC41OGgyLjMzdjIuNjRIOC44M3oiLz4mI3hhOwk8cGF0aCBjbGFzcz0ic3QwIiBkPSJNMTYuNDggOC42MWEuNTYuNTYgMCAwIDEtLjQtLjE3TDEyIDQuMjEgOS4yNiA3LjFhLjU3LjU3IDAgMCAxLS43Ni4wNUw2LjQyIDUuNDdsLTIuMiAyLjkyYS41Ni41NiAwIDAgMS0uNDUuMjJIMHYxLjcxYS43NS43NSAwIDAgMCAuNzQuNzVoMTguNTJhLjc1Ljc1IDAgMCAwIC43NC0uNzVWOC42MXoiLz4mI3hhOwk8cGF0aCBjbGFzcz0ic3QxIiBkPSJNMy41IDcuNWwyLjM4LTMuMTZhLjU1LjU1IDAgMCAxIC4zNy0uMjIuNjMuNjMgMCAwIDEgLjQyLjEybDIuMTIgMS43MiAyLjgtMi45NGEuNTQuNTQgMCAwIDEgLjQtLjE3aDBhLjU0LjU0IDAgMCAxIC40LjE3bDQuMzMgNC40OEgyMFYuNzRhLjc0Ljc0IDAgMCAwLS43NC0uNzRILjc0QS43NC43NCAwIDAgMCAwIC43NHY2LjgxeiIvPiYjeGE7CTxyZWN0IGNsYXNzPSJzdDAiIHg9IjYuNjciIHk9IjEyLjkyIiB3aWR0aD0iNi42NyIgaGVpZ2h0PSIuNjEiIHJ4PSIuMyIvPiYjeGE7PC9zdmc+;" parent="1" vertex="1">
          <mxGeometry x="756" y="218.5" width="42" height="29" as="geometry" />
        </mxCell>
        <mxCell id="7dp7OHDMAVVQQI8xo28f-85" value="" style="image;aspect=fixed;perimeter=ellipsePerimeter;html=1;align=center;shadow=0;dashed=0;spacingTop=3;image=img/lib/active_directory/user_accounts.svg;flipV=0;flipH=1;" parent="1" vertex="1">
          <mxGeometry x="1148" y="408.88" width="50" height="48.5" as="geometry" />
        </mxCell>
        <mxCell id="7dp7OHDMAVVQQI8xo28f-86" value="Business&lt;div&gt;Stakeholders&lt;/div&gt;" style="text;html=1;align=center;verticalAlign=middle;whiteSpace=wrap;rounded=0;" parent="1" vertex="1">
          <mxGeometry x="1143" y="464" width="60" height="30" as="geometry" />
        </mxCell>
        <mxCell id="7dp7OHDMAVVQQI8xo28f-87" value="" style="image;aspect=fixed;html=1;points=[];align=center;fontSize=12;image=img/lib/azure2/identity/User_Settings.svg;" parent="1" vertex="1">
          <mxGeometry x="1135.25" y="300" width="68" height="56.92" as="geometry" />
        </mxCell>
        <mxCell id="7dp7OHDMAVVQQI8xo28f-88" value="Developers" style="text;html=1;align=center;verticalAlign=middle;whiteSpace=wrap;rounded=0;" parent="1" vertex="1">
          <mxGeometry x="1139" y="350" width="60" height="30" as="geometry" />
        </mxCell>
        <mxCell id="7dp7OHDMAVVQQI8xo28f-95" value="Secret&#xa;Manager" style="sketch=0;html=1;verticalAlign=top;labelPosition=center;verticalLabelPosition=bottom;align=center;spacingTop=-6;fontSize=11;fontStyle=1;fontColor=#999999;shape=image;aspect=fixed;imageAspect=0;image=data:image/svg+xml,PHN2ZyB4bWxucz0iaHR0cDovL3d3dy53My5vcmcvMjAwMC9zdmciIGlkPSJzdmc1MzkzNyIgdmVyc2lvbj0iMS4xIiB2aWV3Qm94PSIwIDAgMTc1LjE2MDYzIDEwNC4yNzczNSIgaGVpZ2h0PSIxMDQuMjc3MzVtbSIgd2lkdGg9IjE3NS4xNjA2M21tIj4mI3hhOyAgPHBhdGggZD0ibSAxMjguNTY5MSwzNC4xMTUyMzYgdiAxMi45Nzg1MTYgbCAtMTIuMzM3ODksLTQuMzgwODYgLTIuNTA5NzcsNy4wNjgzNiAxMi41NDEwMiw0LjQ1MzEyNSAtOC41NjA1NSwxMS40MzE2NCA2LjAwMTk2LDQuNDk2MDk0IDguNTk5NjEsLTExLjQ4MDQ2OSA4LjQ5NDE0LDExLjQ2NDg0NCA2LjAyNzM0LC00LjQ2NDg0NCAtOC40NzI2NiwtMTEuNDMzNTkzIDEyLjY0MDYzLC00LjQ2Njc5NyAtMi41LC03LjA3MDMxMyAtMTIuNDIzODMsNC4zOTA2MjUgViAzNC4xMTUyMzYgWiBtIC00NC43NzY4NzIsMCB2IDEyLjk3ODUxNiBsIC0xMi4zMzc4OTEsLTQuMzgwODYgLTIuNTA5NzY1LDcuMDY4MzYgMTIuNTQxMDE1LDQuNDUzMTI1IC04LjU2MDU0NywxMS40MzE2NCA2LjAwMTk1Myw0LjQ5NjA5NCA4LjU5OTYxLC0xMS40ODA0NjkgOC40OTQxNCwxMS40NjQ4NDQgNi4wMjczNDcsLTQuNDY0ODQ0IC04LjQ3MjY1OSwtMTEuNDMzNTkzIDEyLjY0MDYyOSwtNC40NjY3OTcgLTIuNSwtNy4wNzAzMTMgLTEyLjQyMzgzMiw0LjM5MDYyNSBWIDM0LjExNTIzNiBaIG0gLTQ0Ljc3Njg1LDAgdiAxMi45Nzg1MTYgbCAtMTIuMzM3ODkxLC00LjM4MDg2IC0yLjUwOTc2NSw3LjA2ODM2IDEyLjU0MTAxNSw0LjQ1MzEyNSAtOC41NjA1NDcsMTEuNDMxNjQgNi4wMDE5NTMsNC40OTYwOTQgOC41OTk2MSwtMTEuNDgwNDY5IDguNDk0MTQsMTEuNDY0ODQ0IDYuMDI3MzQ0LC00LjQ2NDg0NCAtOC40NzI2NTYsLTExLjQzMzU5MyAxMi42NDA2MjUsLTQuNDY2Nzk3IC0yLjUsLTcuMDcwMzEzIC0xMi40MjM4MjgsNC4zOTA2MjUgViAzNC4xMTUyMzYgWiBNIDE3NS4xNjA2NCwxMGUtNyBWIDEwNC4yNzczNCBoIC0zNy4yNzY4MiBjIC0xLjIwODU3LDAgLTIuMDAyNDgsLTAuNjIzNTQgLTIuMDAyNDgsLTEuODY2MzQgdiAtOS45MjcyMzggYyAwLC0xLjE0ODI1IDAuNzE1OTYsLTEuNzA2NDIgMi4wMDI0OCwtMS43MDY0MiBoIDIzLjc3NjgyIFYgMTMuNSBoIC0yMy45NDQ5OCBjIC0xLjQwODU1LDAgLTEuOTUxNTEsLTAuNzUyMzE3IC0xLjk1MTUxLC0yLjA3NDQ4MiBWIDEuODQyNzI2IGMgMCwtMS4yNjU5NzEgMC42OTgwOCwtMS44NDI3MjUgMS45NTE1MSwtMS44NDI3MjUgeiBNIDAsMCB2IDEwNC4yNzczNSBoIDM3LjI3NjgxNCBjIDEuMjA4NTcxLDAgMi4wMDI0ODMsLTAuNjIzNTQgMi4wMDI0ODMsLTEuODY2MzQgdiAtOS45MjcyMzggYyAwLC0xLjE0ODI1IC0wLjcxNTk1NywtMS43MDY0MiAtMi4wMDI0ODMsLTEuNzA2NDIgSCAxMy41IFYgMTMuNDk5OTk5IGggMjMuOTQ0OTczIGMgMS40MDg1NTIsMCAxLjk1MTUxMSwtMC43NTIzMTcgMS45NTE1MTEsLTIuMDc0NDgyIFYgMS44NDI3MjUgQyAzOS4zOTY0ODQsMC41NzY3NTQgMzguNjk4NDEsMCAzNy40NDQ5NzMsMCBaIiBzdHlsZT0iY29sb3I6IzAwMDAwMDtvcGFjaXR5OjE7ZmlsbDojNDI4NWY0O2ZpbGwtb3BhY2l0eToxOy1pbmtzY2FwZS1zdHJva2U6bm9uZSIvPiYjeGE7PC9zdmc+;" parent="1" vertex="1">
          <mxGeometry x="850" y="225.5" width="42" height="25" as="geometry" />
        </mxCell>
        <mxCell id="7dp7OHDMAVVQQI8xo28f-119" value="" style="group" parent="1" vertex="1" connectable="0">
          <mxGeometry x="820" y="361.33" width="160" height="60" as="geometry" />
        </mxCell>
        <mxCell id="zHdQ75ojqMGqQEHpJBf1-19" value="" style="group" vertex="1" connectable="0" parent="7dp7OHDMAVVQQI8xo28f-119">
          <mxGeometry width="110" height="60" as="geometry" />
        </mxCell>
        <mxCell id="7dp7OHDMAVVQQI8xo28f-112" value="" style="strokeColor=#dddddd;shadow=1;strokeWidth=1;rounded=1;absoluteArcSize=1;arcSize=2;container=0;" parent="zHdQ75ojqMGqQEHpJBf1-19" vertex="1">
          <mxGeometry width="110" height="60" as="geometry" />
        </mxCell>
        <mxCell id="7dp7OHDMAVVQQI8xo28f-115" value="Looker" style="sketch=0;html=1;verticalAlign=top;labelPosition=center;verticalLabelPosition=bottom;align=center;spacingTop=-6;fontSize=11;fontStyle=1;fontColor=#999999;shape=image;aspect=fixed;imageAspect=0;image=data:image/svg+xml,PHN2ZyB4bWxucz0iaHR0cDovL3d3dy53My5vcmcvMjAwMC9zdmciIGlkPSJzdmc4OTgwMSIgdmVyc2lvbj0iMS4xIiB2aWV3Qm94PSIwIDAgMjA4LjA1NjU1IDMzNC42MTMxNiIgaGVpZ2h0PSIzMzQuNjEzMTZtbSIgd2lkdGg9IjIwOC4wNTY1NW1tIj4mI3hhOyAgJiN4YTsgIDxkZWZzIGlkPSJkZWZzODk3OTgiLz4mI3hhOyAgPGcgdHJhbnNmb3JtPSJ0cmFuc2xhdGUoLTQuMjQ2MjUyNCwxNS42NzE5MTEpIiBpZD0ibGF5ZXIxIj4mI3hhOyAgICA8cGF0aCBpZD0icGF0aDkxODAyIiB0cmFuc2Zvcm09InNjYWxlKDAuMjY0NTgzMzMpIiBkPSJtIDQwOS4yMjI2Niw0MTkuMDk5NjEgYyAtMzYuNjA4MTEsMCAtNzIuMDc2NjcsNS4wNzUzIC0xMDUuNzUzOTEsMTQuNTMxMjUgbCA0OS4wMzUxNiwxMjAuMDQxMDIgYyAxOC4yNjE3MiwtMy45Mzg5OSAzNy4yMjE5NiwtNi4wNjgzNiA1Ni43MTg3NSwtNi4wNjgzNiAxNDYuOTM1MTQsMCAyNjQuNjc3NzMsMTE3LjczNDc3IDI2NC42Nzc3MywyNjQuNjY5OTIgMCwxNDYuOTM1MTQgLTExNy43NDI1OSwyNjQuNjY5OTYgLTI2NC42Nzc3MywyNjQuNjY5OTYgLTE0Ni45MzUxNiwwIC0yNjQuNjY5OTEsLTExNy43MzQ4MiAtMjY0LjY2OTkzLC0yNjQuNjY5OTYgMCwtOTkuMTg3NjMgNTMuNjg5ODMsLTE4NS4wMDU5NiAxMzMuNzU1ODYsLTIzMC4zNDc2NiBMIDIyOS42MjY5NSw0NjIuNzUgQyAxMDMuMDI0Nyw1MjguMjI0NzQgMTYuMDQ4ODI3LDY2MC41MDUyMyAxNi4wNDg4MjgsODEyLjI3MzQ0IGMgMi4zZS01LDIxNi4zODM3NiAxNzYuNzkwMDYyLDM5My4xNzM4NiAzOTMuMTczODMyLDM5My4xNzM4NiAyMTYuMzgzNzMsMCAzOTMuMTgxNjQsLTE3Ni43OTAxIDM5My4xODE2NCwtMzkzLjE3Mzg2IDNlLTUsLTIxNi4zODM3OCAtMTc2Ljc5Nzg3LC0zOTMuMTczODMgLTM5My4xODE2NCwtMzkzLjE3MzgzIHoiIHN0eWxlPSJjb2xvcjojMDAwMDAwO29wYWNpdHk6MTtmaWxsOiM1OTg2ZjI7ZmlsbC1vcGFjaXR5OjE7c3Ryb2tlLXdpZHRoOjMuNzc5NTM7c3Ryb2tlLWxpbmVqb2luOnJvdW5kOy1pbmtzY2FwZS1zdHJva2U6bm9uZSIvPiYjeGE7ICAgIDxwYXRoIGQ9Im0gMTg5Ljk0MzM2LDg2LjI1IGMgLTk1LjEzMDMzMSwwIC0xNzMuMTc5Njg4LDc4LjA1NTIyIC0xNzMuMTc5Njg4LDE3My4xODU1NSAtNmUtNiw5NS4xMzAzMyA3OC4wNDkzNTMsMTczLjE3OTY4IDE3My4xNzk2ODgsMTczLjE3OTY4IDkuMDE2MTgsMCAxNy44NzU4LC0wLjcwODMyIDI2LjUzMzIsLTIuMDU4NTkgbCAtMzQuODI4MTIsLTg1LjI2NTYyIGMgLTQ0LjE1NzMsLTQuMDg2NjkgLTc3Ljk1NTA4LC00MC41MDcwNSAtNzcuOTU1MDgsLTg1Ljg1NTQ3IDAsLTQ4LjE1MDM5IDM4LjA5OTYyLC04Ni4yNTU4NiA4Ni4yNSwtODYuMjU1ODYgMTMuMTU5NzcsMCAyNS41NTg4OCwyLjg2MjQ2IDM2LjY0NDUzLDcuOTgyNDIgbCA2NC41NTQ2OSwtNjEuOTE5OTIgQyAyNjIuNjA4MzcsOTguNTMzOTEgMjI3LjYyOTI5LDg2LjI1IDE4OS45NDMzNiw4Ni4yNSBaIG0gMTM4Ljg4ODY3LDcwLjE2MjExIC02My40Mjc3Myw2MC44MzU5NCBjIDYuODc2MzgsMTIuNDI2NzggMTAuNzg5MDYsMjYuNzg4MTUgMTAuNzg5MDYsNDIuMTg3NSAwLDIxLjc2NzEyIC03LjgwNDE1LDQxLjQ2NTQgLTIwLjc4NTE2LDU2LjUzMzIgbCAzNC41MjM0NCw4NC41MTk1MyBjIDQ0LjE3Mzg3LC0zMS40ODc1MSA3My4xOTE0MSwtODMuMDc4OTIgNzMuMTkxNDEsLTE0MS4wNTI3MyAwLC0zOC40ODM1NSAtMTIuNzgyLC03NC4xNjUzMiAtMzQuMjkxMDIsLTEwMy4wMjM0NCB6IiB0cmFuc2Zvcm09InNjYWxlKDAuMjY0NTgzMzMpIiBzdHlsZT0iY29sb3I6IzAwMDAwMDtvcGFjaXR5OjE7ZmlsbDojNmY5OGY0O2ZpbGwtb3BhY2l0eToxO3N0cm9rZS13aWR0aDozLjc3OTUzO3N0cm9rZS1saW5lam9pbjpyb3VuZDstaW5rc2NhcGUtc3Ryb2tlOm5vbmUiIGlkPSJwYXRoOTE3OTgiLz4mI3hhOyAgICA8cGF0aCBpZD0icGF0aDg5OTI4IiB0cmFuc2Zvcm09InNjYWxlKDAuMjY0NTgzMzMpIiBkPSJtIDQwNi4xMzY3MiwtNTkuMjMyNDIyIGMgLTU4LjgxNTQ3LDhlLTYgLTEwNy4xMDM1Miw0OC4yODgwNDUgLTEwNy4xMDM1MiwxMDcuMTAzNTE2IDAsMTguNDk0NDUxIDQuNzgxMDEsMzUuOTQ1MDE3IDEzLjE1NjI1LDUxLjE4MzU5NCBsIDQ0LjMxMjUsLTQyLjUwMzkwNyBjIC0wLjQ3NTY3LC0yLjgyMDc3NSAtMC43NzUzOSwtNS43MDc1NjQgLTAuNzc1MzksLTguNjc5Njg3IDAsLTI4LjE3NjM4IDIyLjIzMzc4LC01MC40MTAxNTI1IDUwLjQxMDE2LC01MC40MTAxNTY1IDI4LjE3NjM4LC00ZS02IDUwLjQxMDE1LDIyLjIzMzc3MDUgNTAuNDEwMTYsNTAuNDEwMTU2NSAwLDI4LjE3NjM4MSAtMjIuMjMzNzgsNTAuNDEyMTEzIC01MC40MTAxNiw1MC40MTIxMDkgLTUuMDY4NjksLTEwZS03IC05LjkzNDE3LC0wLjc0NTYzMSAtMTQuNTIzNDQsLTIuMDg5ODQ0IGwgLTQzLjM2MTMzLDQxLjU5MTgwMSBjIDE2LjczMjIzLDEwLjg0Nzk1IDM2LjYxMTIzLDE3LjE4OTQ1IDU3Ljg4NDc3LDE3LjE4OTQ1IDU4LjgxNTQ5LDEwZS02IDEwNy4xMDM1MSwtNDguMjg4MDQgMTA3LjEwMzUxLC0xMDcuMTAzNTE2IDAsLTU4LjgxNTQ4MyAtNDguMjg4MDIsLTEwNy4xMDM1MjMgLTEwNy4xMDM1MSwtMTA3LjEwMzUxNiB6IiBzdHlsZT0iY29sb3I6IzAwMDAwMDtvcGFjaXR5OjE7ZmlsbDojZDZlM2ZiO2ZpbGwtb3BhY2l0eToxO3N0cm9rZS13aWR0aDozLjc3OTUzO3N0cm9rZS1saW5lam9pbjpyb3VuZDstaW5rc2NhcGUtc3Ryb2tlOm5vbmUiLz4mI3hhOyAgPC9nPiYjeGE7PC9zdmc+;" parent="zHdQ75ojqMGqQEHpJBf1-19" vertex="1">
          <mxGeometry x="9.999999999999993" width="26" height="42" as="geometry" />
        </mxCell>
        <mxCell id="7dp7OHDMAVVQQI8xo28f-117" value="Reporting&lt;div&gt;&lt;font color=&quot;#999999&quot;&gt;Looker&lt;/font&gt;&lt;/div&gt;" style="text;html=1;align=center;verticalAlign=middle;whiteSpace=wrap;rounded=0;" parent="zHdQ75ojqMGqQEHpJBf1-19" vertex="1">
          <mxGeometry x="36" y="15" width="60" height="30" as="geometry" />
        </mxCell>
        <mxCell id="7dp7OHDMAVVQQI8xo28f-121" style="edgeStyle=orthogonalEdgeStyle;rounded=0;orthogonalLoop=1;jettySize=auto;html=1;exitX=1;exitY=0.5;exitDx=0;exitDy=0;entryX=0;entryY=0.25;entryDx=0;entryDy=0;" parent="1" source="7dp7OHDMAVVQQI8xo28f-112" target="7dp7OHDMAVVQQI8xo28f-88" edge="1">
          <mxGeometry relative="1" as="geometry">
            <Array as="points">
              <mxPoint x="1100" y="393" />
              <mxPoint x="1100" y="358" />
            </Array>
          </mxGeometry>
        </mxCell>
        <mxCell id="7dp7OHDMAVVQQI8xo28f-122" style="edgeStyle=orthogonalEdgeStyle;rounded=0;orthogonalLoop=1;jettySize=auto;html=1;exitX=1;exitY=0.5;exitDx=0;exitDy=0;entryX=0;entryY=0.5;entryDx=0;entryDy=0;" parent="1" source="7dp7OHDMAVVQQI8xo28f-112" target="7dp7OHDMAVVQQI8xo28f-85" edge="1">
          <mxGeometry relative="1" as="geometry">
            <Array as="points">
              <mxPoint x="1100" y="393" />
              <mxPoint x="1100" y="433" />
            </Array>
          </mxGeometry>
        </mxCell>
        <mxCell id="7dp7OHDMAVVQQI8xo28f-136" value="" style="group" parent="1" vertex="1" connectable="0">
          <mxGeometry x="10" y="264" width="160" height="230" as="geometry" />
        </mxCell>
        <mxCell id="ffksCVZvfLPVLTZK4YQ5-2" value="&lt;font style=&quot;background-color: rgb(51, 153, 255);&quot; color=&quot;#ffffff&quot;&gt;Data Source&lt;/font&gt;" style="rounded=1;absoluteArcSize=1;arcSize=2;html=1;strokeColor=#4284F3;gradientColor=none;shadow=0;dashed=1;fontSize=12;fontColor=#9E9E9E;align=left;verticalAlign=top;spacing=10;spacingTop=-4;fillColor=none;dashPattern=1 2;strokeWidth=2;movable=1;resizable=1;rotatable=1;deletable=1;editable=1;locked=0;connectable=1;container=0;" parent="7dp7OHDMAVVQQI8xo28f-136" vertex="1">
          <mxGeometry width="160" height="230" as="geometry" />
        </mxCell>
        <mxCell id="7dp7OHDMAVVQQI8xo28f-130" style="rounded=0;orthogonalLoop=1;jettySize=auto;html=1;exitX=0.995;exitY=0.63;exitDx=0;exitDy=0;exitPerimeter=0;entryX=0.25;entryY=1;entryDx=0;entryDy=0;" parent="7dp7OHDMAVVQQI8xo28f-136" source="7dp7OHDMAVVQQI8xo28f-7" target="7dp7OHDMAVVQQI8xo28f-125" edge="1">
          <mxGeometry relative="1" as="geometry" />
        </mxCell>
        <mxCell id="7dp7OHDMAVVQQI8xo28f-132" style="rounded=0;orthogonalLoop=1;jettySize=auto;html=1;exitX=0.995;exitY=0.63;exitDx=0;exitDy=0;exitPerimeter=0;entryX=0;entryY=0.5;entryDx=0;entryDy=0;" parent="7dp7OHDMAVVQQI8xo28f-136" source="7dp7OHDMAVVQQI8xo28f-7" target="7dp7OHDMAVVQQI8xo28f-127" edge="1">
          <mxGeometry relative="1" as="geometry" />
        </mxCell>
        <mxCell id="7dp7OHDMAVVQQI8xo28f-133" style="rounded=0;orthogonalLoop=1;jettySize=auto;html=1;exitX=0.995;exitY=0.63;exitDx=0;exitDy=0;exitPerimeter=0;entryX=0;entryY=0;entryDx=0;entryDy=0;" parent="7dp7OHDMAVVQQI8xo28f-136" source="7dp7OHDMAVVQQI8xo28f-7" target="7dp7OHDMAVVQQI8xo28f-128" edge="1">
          <mxGeometry relative="1" as="geometry" />
        </mxCell>
        <mxCell id="7dp7OHDMAVVQQI8xo28f-7" value="" style="aspect=fixed;sketch=0;html=1;dashed=0;whitespace=wrap;verticalLabelPosition=bottom;verticalAlign=top;fillColor=#2875E2;strokeColor=#ffffff;points=[[0.005,0.63,0],[0.1,0.2,0],[0.9,0.2,0],[0.5,0,0],[0.995,0.63,0],[0.72,0.99,0],[0.5,1,0],[0.28,0.99,0]];shape=mxgraph.kubernetes.icon2;kubernetesLabel=1;prIcon=api;container=0;" parent="7dp7OHDMAVVQQI8xo28f-136" vertex="1">
          <mxGeometry x="10.00333333333333" y="89" width="54.166666666666664" height="52" as="geometry" />
        </mxCell>
        <mxCell id="7dp7OHDMAVVQQI8xo28f-124" value="API Endpoint" style="text;html=1;align=center;verticalAlign=middle;whiteSpace=wrap;rounded=0;" parent="7dp7OHDMAVVQQI8xo28f-136" vertex="1">
          <mxGeometry x="14" y="139" width="60" height="30" as="geometry" />
        </mxCell>
        <mxCell id="7dp7OHDMAVVQQI8xo28f-125" value="Properties" style="text;html=1;align=center;verticalAlign=middle;whiteSpace=wrap;rounded=0;" parent="7dp7OHDMAVVQQI8xo28f-136" vertex="1">
          <mxGeometry x="80" y="26" width="60" height="19" as="geometry" />
        </mxCell>
        <mxCell id="7dp7OHDMAVVQQI8xo28f-126" value="Financials" style="text;html=1;align=center;verticalAlign=middle;whiteSpace=wrap;rounded=0;" parent="7dp7OHDMAVVQQI8xo28f-136" vertex="1">
          <mxGeometry x="90" y="70" width="60" height="19" as="geometry" />
        </mxCell>
        <mxCell id="7dp7OHDMAVVQQI8xo28f-127" value="Leases" style="text;html=1;align=center;verticalAlign=middle;whiteSpace=wrap;rounded=0;" parent="7dp7OHDMAVVQQI8xo28f-136" vertex="1">
          <mxGeometry x="90" y="110" width="60" height="19" as="geometry" />
        </mxCell>
        <mxCell id="7dp7OHDMAVVQQI8xo28f-128" value="Tenants" style="text;html=1;align=center;verticalAlign=middle;whiteSpace=wrap;rounded=0;" parent="7dp7OHDMAVVQQI8xo28f-136" vertex="1">
          <mxGeometry x="90" y="144.5" width="60" height="19" as="geometry" />
        </mxCell>
        <mxCell id="7dp7OHDMAVVQQI8xo28f-131" style="rounded=0;orthogonalLoop=1;jettySize=auto;html=1;exitX=0.995;exitY=0.63;exitDx=0;exitDy=0;exitPerimeter=0;entryX=0.169;entryY=0.829;entryDx=0;entryDy=0;entryPerimeter=0;" parent="7dp7OHDMAVVQQI8xo28f-136" source="7dp7OHDMAVVQQI8xo28f-7" target="7dp7OHDMAVVQQI8xo28f-126" edge="1">
          <mxGeometry relative="1" as="geometry" />
        </mxCell>
        <mxCell id="7dp7OHDMAVVQQI8xo28f-141" value="Maintenances" style="text;html=1;align=center;verticalAlign=middle;whiteSpace=wrap;rounded=0;" parent="7dp7OHDMAVVQQI8xo28f-136" vertex="1">
          <mxGeometry x="80" y="186" width="60" height="19" as="geometry" />
        </mxCell>
        <mxCell id="7dp7OHDMAVVQQI8xo28f-142" style="rounded=0;orthogonalLoop=1;jettySize=auto;html=1;exitX=0.995;exitY=0.63;exitDx=0;exitDy=0;exitPerimeter=0;entryX=0.25;entryY=0;entryDx=0;entryDy=0;" parent="7dp7OHDMAVVQQI8xo28f-136" source="7dp7OHDMAVVQQI8xo28f-7" target="7dp7OHDMAVVQQI8xo28f-141" edge="1">
          <mxGeometry relative="1" as="geometry">
            <mxPoint x="74" y="132" as="sourcePoint" />
            <mxPoint x="100" y="154" as="targetPoint" />
          </mxGeometry>
        </mxCell>
        <mxCell id="CVS4CZeJGM4_yebflVYQ-14" style="edgeStyle=orthogonalEdgeStyle;rounded=0;orthogonalLoop=1;jettySize=auto;html=1;exitX=1;exitY=0.5;exitDx=0;exitDy=0;entryX=0;entryY=0.5;entryDx=0;entryDy=0;" parent="1" source="ffksCVZvfLPVLTZK4YQ5-2" target="CVS4CZeJGM4_yebflVYQ-5" edge="1">
          <mxGeometry relative="1" as="geometry">
            <mxPoint x="206" y="387" as="sourcePoint" />
          </mxGeometry>
        </mxCell>
        <mxCell id="CVS4CZeJGM4_yebflVYQ-16" value="VPC SC Perimeter" style="text;html=1;align=center;verticalAlign=middle;whiteSpace=wrap;rounded=0;fontFamily=Helvetica;fontSize=12;fontColor=default;labelBorderColor=#000000;" parent="1" vertex="1">
          <mxGeometry x="940" y="68" width="60" height="30" as="geometry" />
        </mxCell>
        <mxCell id="7dp7OHDMAVVQQI8xo28f-137" value="" style="rounded=1;whiteSpace=wrap;html=1;opacity=50;fillColor=#fad9d5;strokeColor=#ae4132;" parent="1" vertex="1">
          <mxGeometry x="539.76" y="346" width="244" height="135.31" as="geometry" />
        </mxCell>
        <mxCell id="7dp7OHDMAVVQQI8xo28f-134" value="Push" style="text;html=1;align=center;verticalAlign=middle;whiteSpace=wrap;rounded=0;fontStyle=1" parent="1" vertex="1">
          <mxGeometry x="208" y="370.342" width="60" height="28.74" as="geometry" />
        </mxCell>
        <mxCell id="7dp7OHDMAVVQQI8xo28f-143" value="&lt;b&gt;Scheduled Queries&lt;/b&gt;" style="text;html=1;align=center;verticalAlign=middle;whiteSpace=wrap;rounded=0;" parent="1" vertex="1">
          <mxGeometry x="539.76" y="345.996" width="118" height="28.74" as="geometry" />
        </mxCell>
        <mxCell id="CVS4CZeJGM4_yebflVYQ-12" style="edgeStyle=orthogonalEdgeStyle;rounded=0;orthogonalLoop=1;jettySize=auto;html=1;exitX=1;exitY=0.5;exitDx=0;exitDy=0;entryX=0;entryY=0.5;entryDx=0;entryDy=0;" parent="1" source="CVS4CZeJGM4_yebflVYQ-5" target="CVS4CZeJGM4_yebflVYQ-9" edge="1">
          <mxGeometry relative="1" as="geometry" />
        </mxCell>
        <mxCell id="CVS4CZeJGM4_yebflVYQ-5" value="" style="strokeColor=#dddddd;shadow=1;strokeWidth=1;rounded=1;absoluteArcSize=1;arcSize=2;" parent="1" vertex="1">
          <mxGeometry x="268" y="363.852" width="110" height="57.48" as="geometry" />
        </mxCell>
        <mxCell id="CVS4CZeJGM4_yebflVYQ-6" value="&lt;font color=&quot;#000000&quot;&gt;Event &lt;br&gt;PubSub &lt;br&gt;Topics&lt;/font&gt;" style="editableCssRules=.*;html=1;fontColor=#999999;shape=image;verticalLabelPosition=middle;verticalAlign=middle;labelPosition=right;align=left;spacingLeft=20;part=1;points=[];imageAspect=0;image=data:image/svg+xml,PHN2ZyB4bWxucz0iaHR0cDovL3d3dy53My5vcmcvMjAwMC9zdmciIHhtbG5zOnY9Imh0dHBzOi8vdmVjdGEuaW8vbmFubyIgd2lkdGg9IjE4LjMxOTk5OTY5NDgyNDIyIiBoZWlnaHQ9IjIwLjAwMDAwMTkwNzM0ODYzMyIgdmlld0JveD0iMCAwIDE4LjMxOTk5OTY5NDgyNDIyIDIwLjAwMDAwMTkwNzM0ODYzMyI+JiN4YTsJPHN0eWxlIHR5cGU9InRleHQvY3NzIj4mI3hhOwkuc3Qwe2ZpbGw6IzY2OWRmNjt9JiN4YTsJLnN0MXtmaWxsOiM0Mjg1ZjQ7fSYjeGE7CS5zdDJ7ZmlsbDojYWVjYmZhO30mI3hhOwk8L3N0eWxlPiYjeGE7CTxkZWZzPiYjeGE7CQk8ZmlsdGVyIGlkPSJBIiB4PSI0LjY0IiB5PSI0LjE5IiB3aWR0aD0iMTQuNzMiIGhlaWdodD0iMTIuNzYiIGZpbHRlclVuaXRzPSJ1c2VyU3BhY2VPblVzZSIgY29sb3ItaW50ZXJwb2xhdGlvbi1maWx0ZXJzPSJzUkdCIj4mI3hhOwkJCTxmZUZsb29kIGZsb29kLWNvbG9yPSIjZmZmIi8+JiN4YTsJCQk8ZmVCbGVuZCBpbj0iU291cmNlR3JhcGhpYyIvPiYjeGE7CQk8L2ZpbHRlcj4mI3hhOwkJPG1hc2sgaWQ9IkIiIHg9IjQuNjQiIHk9IjQuMTkiIHdpZHRoPSIxNC43MyIgaGVpZ2h0PSIxMi43NiIgbWFza1VuaXRzPSJ1c2VyU3BhY2VPblVzZSI+JiN4YTsJCQk8Y2lyY2xlIGN4PSIxMiIgY3k9IjEyLjIzIiByPSIzLjU4IiBmaWx0ZXI9InVybCgjQSkiLz4mI3hhOwkJPC9tYXNrPiYjeGE7CTwvZGVmcz4mI3hhOwk8ZyBjbGFzcz0ic3QwIj4mI3hhOwkJPGNpcmNsZSBjeD0iMTYuMTMiIGN5PSI2LjIxIiByPSIxLjcyIi8+JiN4YTsJCTxjaXJjbGUgY3g9IjIuMTkiIGN5PSI2LjIxIiByPSIxLjcyIi8+JiN4YTsJCTxjaXJjbGUgY3g9IjkuMTYiIGN5PSIxOC4yOCIgcj0iMS43MiIvPiYjeGE7CTwvZz4mI3hhOwk8ZyBtYXNrPSJ1cmwoI0IpIiB0cmFuc2Zvcm09InRyYW5zbGF0ZSgtMi44NCAtMikiPiYjeGE7CQk8cGF0aCB0cmFuc2Zvcm09Im1hdHJpeCguNSAtLjg3IC44NyAuNSAtNC41OSAyMC41MykiIGQ9Ik0xNC42OSAxMC4yMmgxLjU5djguMDRoLTEuNTl6IiBjbGFzcz0ic3QxIi8+JiN4YTsJCTxwYXRoIHRyYW5zZm9ybT0icm90YXRlKDMzMCA4LjUyMyAxNC4yNDQpIiBkPSJNNC40OSAxMy40NWg4LjA0djEuNTlINC40OXoiIGNsYXNzPSJzdDEiLz4mI3hhOwkJPHBhdGggZD0iTTExLjIgNC4xOWgxLjU5djguMDRIMTEuMnoiIGNsYXNzPSJzdDEiLz4mI3hhOwk8L2c+JiN4YTsJPGcgY2xhc3M9InN0MiI+JiN4YTsJCTxjaXJjbGUgY3g9IjkuMTYiIGN5PSIxMC4yMyIgcj0iMi43OCIvPiYjeGE7CQk8Y2lyY2xlIGN4PSIyLjE5IiBjeT0iMTQuMjUiIHI9IjIuMTkiLz4mI3hhOwkJPGNpcmNsZSBjeD0iMTYuMTMiIGN5PSIxNC4yNSIgcj0iMi4xOSIvPiYjeGE7CQk8Y2lyY2xlIGN4PSI5LjE2IiBjeT0iMi4xOSIgcj0iMi4xOSIvPiYjeGE7CTwvZz4mI3hhOzwvc3ZnPg==;" parent="CVS4CZeJGM4_yebflVYQ-5" vertex="1">
          <mxGeometry width="27" height="30" relative="1" as="geometry">
            <mxPoint x="16" y="15" as="offset" />
          </mxGeometry>
        </mxCell>
        <mxCell id="CVS4CZeJGM4_yebflVYQ-9" value="Cloud&#xa;Functions" style="sketch=0;html=1;verticalAlign=top;labelPosition=center;verticalLabelPosition=bottom;align=center;spacingTop=-6;fontSize=11;fontStyle=1;fontColor=#999999;shape=image;aspect=fixed;imageAspect=0;image=data:image/svg+xml,PHN2ZyB4bWxucz0iaHR0cDovL3d3dy53My5vcmcvMjAwMC9zdmciIHhtbG5zOnY9Imh0dHBzOi8vdmVjdGEuaW8vbmFubyIgd2lkdGg9IjIwIiBoZWlnaHQ9IjE5Ljk4OTk5OTc3MTExODE2NCIgdmlld0JveD0iMCAwIDIwIDE5Ljk4OTk5OTc3MTExODE2NCI+JiN4YTsJPHN0eWxlIHR5cGU9InRleHQvY3NzIj4mI3hhOwkuc3Qwe2ZpbGw6IzQyODVmNDt9JiN4YTsJLnN0MXtmaWxsOiM2NjlkZjY7fSYjeGE7CS5zdDJ7ZmlsbDojYWVjYmZhO30mI3hhOwk8L3N0eWxlPiYjeGE7CTxwYXRoIGNsYXNzPSJzdDEiIGQ9Ik0zIDMuOTlMMCA2LjQydjcuMTNsMyAyLjQ0eiIvPiYjeGE7CTxwYXRoIGNsYXNzPSJzdDAiIGQ9Ik0zIDMuOTlsLTMgNCAzLTJ6bS0zIDhsMyA0di0yeiIvPiYjeGE7CTxwYXRoIGNsYXNzPSJzdDIiIGQ9Ik0wIDE1Ljk5bDQgNCAyLTItNi02em0uMDEtOEw1Ljk5IDJsLTItMkwwIDMuOTl6Ii8+JiN4YTsJPHBhdGggY2xhc3M9InN0MSIgZD0iTTE3IDE2bDMtMi40MlY2LjQ0TDE3IDR6Ii8+JiN4YTsJPHBhdGggY2xhc3M9InN0MCIgZD0iTTE3IDE2bDMtNC0zIDJ6bTMtOGwtMy00djJ6Ii8+JiN4YTsJPGcgY2xhc3M9InN0MiI+JiN4YTsJCTxwYXRoIGQ9Ik0yMCA0bC00LTQtMiAyIDYgNnptLS4wMSA4bC01Ljk4IDUuOTkgMiAyTDIwIDE2eiIvPiYjeGE7CQk8Y2lyY2xlIGN4PSI2IiBjeT0iOS45OSIgcj0iMSIvPiYjeGE7CQk8Y2lyY2xlIGN4PSIxMCIgY3k9IjkuOTkiIHI9IjEiLz4mI3hhOwkJPGNpcmNsZSBjeD0iMTMuOTkiIGN5PSI5Ljk5IiByPSIxIi8+JiN4YTsJPC9nPiYjeGE7PC9zdmc+;" parent="1" vertex="1">
          <mxGeometry x="430" y="376.306" width="40.236" height="32.571999999999996" as="geometry" />
        </mxCell>
        <mxCell id="CVS4CZeJGM4_yebflVYQ-13" style="edgeStyle=orthogonalEdgeStyle;rounded=0;orthogonalLoop=1;jettySize=auto;html=1;exitX=1;exitY=0.5;exitDx=0;exitDy=0;entryX=0;entryY=0.5;entryDx=0;entryDy=0;" parent="1" source="CVS4CZeJGM4_yebflVYQ-9" target="7dp7OHDMAVVQQI8xo28f-64" edge="1">
          <mxGeometry relative="1" as="geometry">
            <mxPoint x="499.9960000000001" y="393.9020000000001" as="sourcePoint" />
            <mxPoint x="553.76" y="400.59999999999997" as="targetPoint" />
          </mxGeometry>
        </mxCell>
        <mxCell id="zHdQ75ojqMGqQEHpJBf1-15" style="edgeStyle=orthogonalEdgeStyle;rounded=0;orthogonalLoop=1;jettySize=auto;html=1;exitX=0.5;exitY=1;exitDx=0;exitDy=0;entryX=0;entryY=0.5;entryDx=0;entryDy=0;" edge="1" parent="1" source="7dp7OHDMAVVQQI8xo28f-64" target="zHdQ75ojqMGqQEHpJBf1-9">
          <mxGeometry relative="1" as="geometry" />
        </mxCell>
        <mxCell id="zHdQ75ojqMGqQEHpJBf1-17" style="edgeStyle=orthogonalEdgeStyle;rounded=0;orthogonalLoop=1;jettySize=auto;html=1;exitX=1;exitY=0.5;exitDx=0;exitDy=0;entryX=0;entryY=0.5;entryDx=0;entryDy=0;" edge="1" parent="1" source="7dp7OHDMAVVQQI8xo28f-64" target="7dp7OHDMAVVQQI8xo28f-112">
          <mxGeometry relative="1" as="geometry">
            <mxPoint x="873.76" y="393.8999999999999" as="targetPoint" />
          </mxGeometry>
        </mxCell>
        <mxCell id="7dp7OHDMAVVQQI8xo28f-64" value="" style="strokeColor=#dddddd;shadow=1;strokeWidth=1;rounded=1;absoluteArcSize=1;arcSize=2;" parent="1" vertex="1">
          <mxGeometry x="553.76" y="366.9" width="150" height="50" as="geometry" />
        </mxCell>
        <mxCell id="7dp7OHDMAVVQQI8xo28f-65" value="&lt;div&gt;&lt;font color=&quot;#000000&quot;&gt;DWH Analytics&lt;/font&gt;&lt;br&gt;BigQuery&lt;/div&gt;" style="editableCssRules=.*;html=1;fontColor=#999999;shape=image;verticalLabelPosition=middle;verticalAlign=middle;labelPosition=right;align=left;spacingLeft=20;part=1;points=[];imageAspect=0;image=data:image/svg+xml,PHN2ZyB4bWxucz0iaHR0cDovL3d3dy53My5vcmcvMjAwMC9zdmciIHhtbG5zOnY9Imh0dHBzOi8vdmVjdGEuaW8vbmFubyIgd2lkdGg9IjIwLjAwMTA0NTIyNzA1MDc4IiBoZWlnaHQ9IjIwLjAwMTA0NTIyNzA1MDc4IiBmaWxsLXJ1bGU9ImV2ZW5vZGQiIHZpZXdCb3g9IjAgMCAyMC4wMDEwNDUyMjcwNTA3OCAyMC4wMDEwNDUyMjcwNTA3OCI+JiN4YTsJPHN0eWxlIHR5cGU9InRleHQvY3NzIj4mI3hhOwkuc3Qwe2ZpbGw6I2FlY2JmYTt9JiN4YTsJLnN0MXtmaWxsOiM2NjlkZjY7fSYjeGE7CS5zdDJ7ZmlsbDojNDI4NWY0O30mI3hhOwk8L3N0eWxlPiYjeGE7CTxwYXRoIGNsYXNzPSJzdDAiIGQ9Ik00LjczIDguODN2Mi42M2E0LjkxIDQuOTEgMCAwIDAgMS43MSAxLjc0VjguODN6Ii8+JiN4YTsJPHBhdGggY2xhc3M9InN0MSIgZD0iTTcuODkgNi40MXY3LjUzQTcuNjIgNy42MiAwIDAgMCA5IDE0YTggOCAwIDAgMCAxIDBWNi40MXoiLz4mI3hhOwk8cGF0aCBjbGFzcz0ic3QwIiBkPSJNMTEuNjQgOS44NnYzLjI5YTUgNSAwIDAgMCAxLjctMS44MlY5Ljg2eiIvPiYjeGE7CTxwYXRoIGNsYXNzPSJzdDIiIGQ9Ik0xNS43NCAxNC4zMmwtMS40MiAxLjQyYS40Mi40MiAwIDAgMCAwIC42bDMuNTQgMy41NGEuNDIuNDIgMCAwIDAgLjU5IDBsMS40My0xLjQzYS40Mi40MiAwIDAgMCAwLS41OWwtMy41NC0zLjU0YS40Mi40MiAwIDAgMC0uNiAwIi8+JiN4YTsJPHBhdGggY2xhc3M9InN0MSIgZD0iTTkgMGE5IDkgMCAxIDAgMCAxOEE5IDkgMCAxIDAgOSAwbTAgMTUuNjlhNi42OCA2LjY4IDAgMCAxIC4wMDctMTMuMzYgNi42OCA2LjY4IDAgMCAxIDQuNzI3IDExLjQwM0E2LjY4IDYuNjggMCAwIDEgOSAxNS42OSIvPiYjeGE7PC9zdmc+;" parent="7dp7OHDMAVVQQI8xo28f-64" vertex="1">
          <mxGeometry width="30" height="30" relative="1" as="geometry">
            <mxPoint x="15" y="15" as="offset" />
          </mxGeometry>
        </mxCell>
        <mxCell id="zHdQ75ojqMGqQEHpJBf1-2" value="" style="group" vertex="1" connectable="0" parent="1">
          <mxGeometry x="160" y="41" width="60" height="463.67199999999997" as="geometry" />
        </mxCell>
        <mxCell id="7dp7OHDMAVVQQI8xo28f-93" value="" style="endArrow=none;html=1;rounded=0;dashed=1;strokeColor=#9E0000;" parent="zHdQ75ojqMGqQEHpJBf1-2" edge="1">
          <mxGeometry width="50" height="50" relative="1" as="geometry">
            <mxPoint x="29" y="509" as="sourcePoint" />
            <mxPoint x="29.409999999999997" y="18.201999999999998" as="targetPoint" />
          </mxGeometry>
        </mxCell>
        <mxCell id="7dp7OHDMAVVQQI8xo28f-94" value="VPN" style="text;html=1;align=center;verticalAlign=middle;whiteSpace=wrap;rounded=0;fillColor=#fad7ac;strokeColor=#b46504;" parent="zHdQ75ojqMGqQEHpJBf1-2" vertex="1">
          <mxGeometry width="60" height="18.201999999999998" as="geometry" />
        </mxCell>
        <mxCell id="zHdQ75ojqMGqQEHpJBf1-14" value="" style="group" vertex="1" connectable="0" parent="1">
          <mxGeometry x="673.76" y="428.31" width="100.98000000000002" height="53" as="geometry" />
        </mxCell>
        <mxCell id="zHdQ75ojqMGqQEHpJBf1-9" value="" style="strokeColor=#dddddd;shadow=1;strokeWidth=1;rounded=1;absoluteArcSize=1;arcSize=2;container=0;" vertex="1" parent="zHdQ75ojqMGqQEHpJBf1-14">
          <mxGeometry width="100" height="40" as="geometry" />
        </mxCell>
        <mxCell id="zHdQ75ojqMGqQEHpJBf1-10" value="" style="editableCssRules=.*;html=1;fontColor=#999999;shape=image;verticalLabelPosition=middle;verticalAlign=middle;labelPosition=right;align=left;spacingLeft=20;part=1;points=[];imageAspect=0;image=data:image/svg+xml,PHN2ZyB4bWxucz0iaHR0cDovL3d3dy53My5vcmcvMjAwMC9zdmciIHhtbG5zOnY9Imh0dHBzOi8vdmVjdGEuaW8vbmFubyIgd2lkdGg9IjIwIiBoZWlnaHQ9IjE2IiB2aWV3Qm94PSIwIDAgMjAgMTYiPiYjeGE7CTxzdHlsZSB0eXBlPSJ0ZXh0L2NzcyI+JiN4YTsJLnN0MHtmaWxsOiM0Mjg1ZjQ7fSYjeGE7CS5zdDF7ZmlsbDojNjY5ZGY2O30mI3hhOwkuc3Qye2ZpbGw6I2FlY2JmYTt9JiN4YTsJLnN0M3tmaWxsOiNmZmY7fSYjeGE7CTwvc3R5bGU+JiN4YTsJPHBhdGggY2xhc3M9InN0MiIgZD0iTTAgMGgyMHY3SDB6Ii8+JiN4YTsJPHBhdGggY2xhc3M9InN0MSIgZD0iTTE4IDBoMnY3aC0yeiIvPiYjeGE7CTxwYXRoIGNsYXNzPSJzdDAiIGQ9Ik0xOCA3bDItN2gtMnoiLz4mI3hhOwk8cGF0aCBjbGFzcz0ic3QxIiBkPSJNMCAwaDJ2N0gweiIvPiYjeGE7CTxnIGNsYXNzPSJzdDMiPiYjeGE7CQk8cGF0aCBkPSJNNCAzaDZ2MUg0eiIvPiYjeGE7CQk8cmVjdCB4PSIxMyIgeT0iMiIgd2lkdGg9IjMiIGhlaWdodD0iMyIgcng9IjEuNSIvPiYjeGE7CTwvZz4mI3hhOwk8cGF0aCBjbGFzcz0ic3QyIiBkPSJNMCA5aDIwdjdIMHoiLz4mI3hhOwk8cGF0aCBjbGFzcz0ic3QxIiBkPSJNMTggOWgydjdoLTJ6Ii8+JiN4YTsJPHBhdGggY2xhc3M9InN0MCIgZD0iTTE4IDE2bDItN2gtMnoiLz4mI3hhOwk8cGF0aCBjbGFzcz0ic3QxIiBkPSJNMCA5aDJ2N0gweiIvPiYjeGE7CTxnIGNsYXNzPSJzdDMiPiYjeGE7CQk8cGF0aCBkPSJNNCAxMmg2djFINHoiLz4mI3hhOwkJPHJlY3QgeD0iMTMiIHk9IjExIiB3aWR0aD0iMyIgaGVpZ2h0PSIzIiByeD0iMS41Ii8+JiN4YTsJPC9nPiYjeGE7PC9zdmc+;container=0;" vertex="1" parent="zHdQ75ojqMGqQEHpJBf1-14">
          <mxGeometry x="10.980000000000018" y="11" width="30" height="24" as="geometry">
            <mxPoint x="15" y="18" as="offset" />
          </mxGeometry>
        </mxCell>
        <mxCell id="zHdQ75ojqMGqQEHpJBf1-13" value="Cloud Storage" style="text;html=1;align=center;verticalAlign=middle;whiteSpace=wrap;rounded=0;" vertex="1" parent="zHdQ75ojqMGqQEHpJBf1-14">
          <mxGeometry x="40.98000000000002" y="5" width="60" height="30" as="geometry" />
        </mxCell>
        <mxCell id="zHdQ75ojqMGqQEHpJBf1-16" value="&lt;font style=&quot;font-size: 10px;&quot;&gt;&lt;b&gt;Export&lt;/b&gt;&lt;/font&gt;" style="text;html=1;align=center;verticalAlign=middle;whiteSpace=wrap;rounded=0;" vertex="1" parent="1">
          <mxGeometry x="613.76" y="440.31" width="60" height="30" as="geometry" />
        </mxCell>
        <mxCell id="zHdQ75ojqMGqQEHpJBf1-18" style="edgeStyle=orthogonalEdgeStyle;rounded=0;orthogonalLoop=1;jettySize=auto;html=1;exitX=1;exitY=0.5;exitDx=0;exitDy=0;entryX=0.75;entryY=0;entryDx=0;entryDy=0;" edge="1" parent="1" source="7dp7OHDMAVVQQI8xo28f-45" target="7dp7OHDMAVVQQI8xo28f-64">
          <mxGeometry relative="1" as="geometry">
            <Array as="points">
              <mxPoint x="620" y="243" />
              <mxPoint x="620" y="340" />
              <mxPoint x="666" y="340" />
            </Array>
          </mxGeometry>
        </mxCell>
        <mxCell id="zHdQ75ojqMGqQEHpJBf1-20" value="&lt;font style=&quot;font-size: 11px;&quot;&gt;&lt;b&gt;streaming&lt;/b&gt;&lt;/font&gt;&lt;div&gt;&lt;font style=&quot;font-size: 11px;&quot;&gt;&lt;b&gt;insert&lt;/b&gt;&lt;/font&gt;&lt;/div&gt;" style="text;html=1;align=center;verticalAlign=middle;whiteSpace=wrap;rounded=0;" vertex="1" parent="1">
          <mxGeometry x="479.76" y="361.33" width="60" height="30" as="geometry" />
        </mxCell>
      </root>
    </mxGraphModel>
  </diagram>
</mxfile>
